PathFileType	4	(X/Y/Z)	c:\Git\powerlifing_model_clean\simulations\HC835B\Session1\HC835B_OGW_0006\marker_experimental.trc
DataRate	CameraRate	NumFrames	NumMarkers	Units	OrigDataRate	OrigDataStartFrame	OrigNumFrames
240.000000	240.000000	4	38	mm	240.000000	216	433
Frame#	Time	RPSI			LPSI			RASI			LASI			RTH1			RTH2			RTH3			RTH4			RSK1			RSK2			RSK3			RSK4			RCAL1			RCAL2			RCAL3			RST			RPT			RTN			RFMB			RSMB			RVMB			RFMH			RSMH			RVMH			RPM			LTH1			LTH2			LTH3			LTH4			LSK1			LSK2			LSK3			LSK4			LCAL1			LCAL2			LCAL3			LFMH			LVMH			
		X1	Y1	Z1	X2	Y2	Z2	X3	Y3	Z3	X4	Y4	Z4	X5	Y5	Z5	X6	Y6	Z6	X7	Y7	Z7	X8	Y8	Z8	X9	Y9	Z9	X10	Y10	Z10	X11	Y11	Z11	X12	Y12	Z12	X13	Y13	Z13	X14	Y14	Z14	X15	Y15	Z15	X16	Y16	Z16	X17	Y17	Z17	X18	Y18	Z18	X19	Y19	Z19	X20	Y20	Z20	X21	Y21	Z21	X22	Y22	Z22	X23	Y23	Z23	X24	Y24	Z24	X25	Y25	Z25	X26	Y26	Z26	X27	Y27	Z27	X28	Y28	Z28	X29	Y29	Z29	X30	Y30	Z30	X31	Y31	Z31	X32	Y32	Z32	X33	Y33	Z33	X34	Y34	Z34	X35	Y35	Z35	X36	Y36	Z36	X37	Y37	Z37	X38	Y38	Z38	

217	0.9	485.788055419922	1143.28369140625	-1137.11669921875	596.3414916992189	1143.231079101563	-1129.364379882813	414.0029602050782	1111.628662109375	-932.8926391601565	652.5953369140626	1105.611450195313	-916.932556152344	315.5552673339844	846.5465087890627	-916.801696777344	321.3053894042969	860.0928344726565	-858.3342895507815	316.8183288574219	781.4748535156252	-862.7540283203127	332.6937866210938	792.398864746094	-807.2648925781252	378.7593383789063	401.7671813964845	-988.8480224609377	368.2595520019532	361.7332153320313	-942.620788574219	384.7078247070314	343.8132629394532	-998.7698974609377	386.3512268066407	306.3784484863282	-951.6170043945315	462.6058959960939	245.284652709961	-1101.65185546875	500.8513793945314	214.4521484375001	-1104.389038085938	439.5554199218751	208.4985504150391	-1123.814453125	498.6999816894532	192.0831451416016	-1037.315185546875	403.5969848632814	183.3594360351563	-1075.285034179688	472.0887451171876	177.6560974121094	-986.081237792969	467.9886474609376	145.5734405517578	-968.3959960937502	415.1685791015626	154.6520690917969	-960.7563476562502	394.7413940429689	136.1480102539063	-1053.872924804688	471.4270629882814	92.06446075439455	-938.164489746094	414.4025878906251	92.83119201660158	-932.0175781250002	367.3676757812501	83.12508392333986	-1000.263366699219	417.0613098144532	58.28355407714845	-887.1219482421877	712.4462890625001	816.173522949219	-1003.441772460938	703.7241821289064	803.1489868164065	-944.3151855468752	701.0952758789064	733.3733520507814	-984.833435058594	675.9304199218751	723.0781250000001	-930.0915527343752	653.6075439453126	289.1994018554688	-1099.603271484375	655.2584838867189	265.8549804687501	-1051.573364257813	648.8912963867189	233.8347320556641	-1089.125610351563	634.9386596679689	213.4078674316407	-1037.755859375	588.9735107421876	90.29138946533205	-1163.244873046875	620.2105102539064	53.82396316528322	-1162.647338867188	561.9975585937501	51.5515480041504	-1159.942260742188	558.3446655273439	60.15804290771486	-934.941833496094	663.3977661132814	36.67680358886719	-973.2840576171877	
218	0.9041666666666667	485.3281250000001	1143.486450195313	-1130.576171875	595.9292602539064	1143.373291015625	-1123.051513671875	414.2046203613282	1112.023315429688	-926.0781250000002	652.3810424804689	1105.43115234375	-910.8613281250002	315.3110656738282	847.3650512695315	-908.4060668945315	321.4459533691407	861.0349731445315	-850.0498046875002	316.8604736328126	782.5859985351565	-854.0753173828127	333.1809997558594	793.478942871094	-798.8258056640627	378.3876037597657	398.9832153320314	-975.1396484375002	367.9634399414063	359.9370727539063	-928.073913574219	384.3101501464845	340.8786010742188	-983.611999511719	386.0848999023439	304.4669189453126	-935.8218383789065	461.363250732422	239.3794708251954	-1084.188110351563	500.0770263671876	208.5332183837891	-1086.693115234375	439.1244506835939	201.8106231689454	-1105.74951171875	497.948944091797	188.1068725585938	-1019.132263183594	402.6597595214845	178.7099761962891	-1056.466064453125	471.5841674804689	174.8653259277344	-967.3916015625002	467.3971557617189	143.3516540527344	-948.822692871094	414.5139465332032	152.6961517333985	-941.4216308593752	393.8619995117189	131.8107604980469	-1033.961791992188	470.6743774414064	90.55516815185548	-917.3575439453127	413.6009826660157	91.71556854248048	-911.0334472656252	366.4825744628907	80.37078857421876	-978.7402954101565	416.311981201172	58.28189849853517	-865.270446777344	712.6884155273439	816.4085083007815	-999.455017089844	703.1483154296876	802.8708496093752	-940.4036865234377	700.6600952148439	733.3937988281251	-981.5227661132815	675.2627563476564	722.6225585937501	-927.0510253906252	653.5081787109376	289.5093383789063	-1098.910278320313	655.1293945312501	266.0441284179688	-1050.899291992188	648.7639770507814	234.1185760498047	-1088.573120117188	634.7885131835939	213.4895477294922	-1037.362548828125	588.8150024414064	90.4890823364258	-1163.080322265625	620.0358276367189	54.06130981445314	-1162.535766601563	561.8441162109376	51.69407653808595	-1159.780395507813	558.3768310546876	60.06660842895509	-934.7861328125002	663.4030761718751	36.62052536010743	-973.229675292969	
219	0.9083333333333333	484.8045959472657	1143.575073242188	-1124.057373046875	595.5053100585939	1143.460327148438	-1116.741088867188	414.3598937988282	1112.302734375	-919.1790771484377	652.1998291015626	1105.150634765625	-904.7628173828127	315.0613098144532	848.0606689453127	-900.0845336914065	321.6330871582032	861.7737426757815	-841.9174804687502	316.9673461914063	783.4890747070315	-845.4961547851565	333.6777648925782	794.673278808594	-790.442810058594	377.9388732910157	395.7755737304689	-961.468444824219	367.6340637207032	357.8262634277344	-913.5600585937502	383.8579101562501	337.4442138671876	-968.8803710937502	385.710662841797	302.4917907714844	-920.0153808593752	460.4379882812501	233.3476867675782	-1066.74462890625	499.2205200195314	202.4638061523438	-1068.920532226563	438.2294311523439	195.4229888916016	-1087.775756835938	497.1738586425782	183.7744903564453	-1000.803833007813	402.0030517578126	173.4228820800782	-1037.94482421875	471.1489257812501	172.3282470703125	-948.5437622070315	466.7390747070314	141.0553894042969	-929.2513427734377	413.9019470214845	150.7413177490235	-922.018981933594	392.9650268554689	127.5386199951172	-1013.877380371094	469.9577636718751	89.13914489746095	-896.4372558593752	412.9781799316407	90.54490661621095	-890.1674804687502	365.5784912109376	77.49370574951173	-957.4875488281252	415.5973510742189	58.29446411132814	-843.4627685546877	711.8782958984376	816.520202636719	-995.2750244140627	702.5887451171876	802.623229980469	-936.5407714843752	700.3113403320314	733.4016113281251	-978.1850585937502	674.6443481445314	722.2920532226564	-923.900817871094	653.4194335937501	289.7685241699219	-1098.200317382813	655.0131225585939	266.2175598144532	-1050.308715820313	648.6611328125001	234.3547668457032	-1088.020629882813	634.6764526367189	213.6106414794922	-1036.841430664063	588.6301879882814	90.73244476318361	-1162.855712890625	619.8836669921876	54.32856750488283	-1162.435302734375	561.0817871093751	51.51156616210939	-1159.923461914063	558.3829956054689	59.98569488525392	-934.611022949219	663.4098510742189	36.62773513793946	-973.2250976562502	
220	0.9125	484.2866516113282	1143.613403320313	-1117.587890625	595.0576782226564	1143.45703125	-1110.440795898438	414.5214233398439	1112.353515625	-912.459411621094	652.0017089843751	1104.752075195313	-898.6632080078127	314.9673156738282	848.7700805664065	-892.0327758789065	321.8187866210938	862.7036743164065	-833.705505371094	317.0833435058594	784.2161865234377	-837.1430664062502	334.2099304199219	795.4226074218752	-782.212341308594	377.5661010742188	392.7608947753907	-947.8377075195315	367.4713134765626	355.9143066406251	-898.9473266601565	383.2665710449219	334.3106994628907	-953.7983398437502	385.4913024902345	300.1347045898438	-904.3733520507815	459.8984375000001	227.4390716552735	-1049.829956054688	498.3697204589845	196.3043670654297	-1051.1640625	437.2525024414064	188.8919830322266	-1069.315063476563	496.4949951171876	179.6124572753907	-982.312194824219	401.041717529297	168.6376037597657	-1018.855712890625	470.5010986328126	169.4756774902344	-929.761169433594	465.8687744140626	138.5664215087891	-909.8316650390627	413.2026977539064	148.7630310058594	-902.5690917968752	392.0430603027345	123.2259292602539	-993.7149047851565	469.1914672851564	87.7194061279297	-875.4511718750002	412.097137451172	89.53231811523439	-868.9455566406252	364.6127624511719	74.76510620117189	-935.9404907226565	414.8420715332032	58.65243148803712	-821.4412841796877	711.6187744140626	816.6759033203127	-991.1871337890627	702.3793334960939	802.185241699219	-932.9031372070315	699.9630737304689	733.4708251953126	-974.818786621094	673.9805908203126	721.9125976562501	-920.776550292969	653.3148803710939	290.0302734375001	-1097.4658203125	654.8840942382814	266.3608703613282	-1049.58642578125	648.5469360351564	234.6114654541016	-1087.432495117188	634.5715332031251	213.7286071777344	-1036.303588867188	588.4387817382814	90.98847961425783	-1162.689331054688	619.7159423828126	54.60111618041994	-1162.351318359375	561.3743286132814	51.8037796020508	-1159.31005859375	558.5123901367189	60.05185317993165	-934.2410278320315	663.4102783203126	36.58498764038087	-973.1674804687502	
